<svg xmlns="http://www.w3.org/2000/svg" viewBox="0 0 800 500" fill="none">
  <rect width="800" height="500" fill="#0a0a0f"/>
  <defs><linearGradient id="bg" x1="0" y1="0" x2="800" y2="500"><stop offset="0%" stop-color="#cc0000" stop-opacity="0.15"/><stop offset="100%" stop-color="#39FF14" stop-opacity="0.05"/></linearGradient></defs>
  <rect width="800" height="500" fill="url(#bg)" opacity="0.6"/>
  <ellipse cx="400" cy="420" rx="320" ry="30" fill="#cc0000" opacity="0.08"/>
  <circle cx="224" cy="340" r="72" fill="#111" stroke="#333" stroke-width="4"/>
  <circle cx="224" cy="340" r="46" fill="#1a1a2e" stroke="#cc0000" stroke-width="2"/>
  <circle cx="576" cy="340" r="72" fill="#111" stroke="#333" stroke-width="4"/>
  <circle cx="576" cy="340" r="46" fill="#1a1a2e" stroke="#cc0000" stroke-width="2"/>
  <path d="M224 340 L300 175 L390 158 L510 172 L576 340" stroke="#cc0000" stroke-width="6" fill="none"/>
  <path d="M300 175 L355 340 L224 340" stroke="#cc0000" stroke-width="5" fill="none"/>
  <path d="M355 165 L425 165 L490 172" stroke="#cc0000" stroke-width="4" fill="none"/>
  <rect x="330" y="158" width="88" height="32" rx="5" fill="#aa0000"/>
  <path d="M285 168 Q360 145 445 168 L425 198 Q360 188 285 198 Z" fill="#111"/>
  <path d="M510 172 L555 138" stroke="#ccc" stroke-width="4" stroke-linecap="round"/>
  <text x="400" y="480" text-anchor="middle" fill="#ff3333" font-family="Arial,sans-serif" font-size="16" font-weight="bold">Hero XPulse 200 4V</text>
</svg>
