<svg xmlns="http://www.w3.org/2000/svg" viewBox="0 0 800 500" fill="none">
  <rect width="800" height="500" fill="#0a0a0f"/>
  <defs><linearGradient id="bg" x1="0" y1="0" x2="800" y2="500"><stop offset="0%" stop-color="#555" stop-opacity="0.2"/><stop offset="100%" stop-color="#007BFF" stop-opacity="0.05"/></linearGradient></defs>
  <rect width="800" height="500" fill="url(#bg)" opacity="0.6"/>
  <ellipse cx="400" cy="420" rx="320" ry="30" fill="#555" opacity="0.1"/>
  <circle cx="222" cy="341" r="69" fill="#111" stroke="#333" stroke-width="4"/>
  <circle cx="222" cy="341" r="43" fill="#1a1a2e" stroke="#888" stroke-width="2"/>
  <circle cx="578" cy="341" r="69" fill="#111" stroke="#333" stroke-width="4"/>
  <circle cx="578" cy="341" r="43" fill="#1a1a2e" stroke="#888" stroke-width="2"/>
  <path d="M222 341 L315 192 L405 178 L515 192 L578 341" stroke="#888" stroke-width="6" fill="none"/>
  <path d="M315 192 L372 341 L222 341" stroke="#888" stroke-width="5" fill="none"/>
  <ellipse cx="385" cy="200" rx="88" ry="42" fill="#333" stroke="#555" stroke-width="2"/>
  <path d="M298 188 Q365 165 440 188 L422 218 Q365 208 298 216 Z" fill="#1a1a1a"/>
  <path d="M515 192 L558 158" stroke="#ccc" stroke-width="4" stroke-linecap="round"/>
  <circle cx="588" cy="202" r="16" fill="#eee"/>
  <text x="400" y="480" text-anchor="middle" fill="#aaa" font-family="Arial,sans-serif" font-size="16" font-weight="bold">Honda CB350 H'ness</text>
</svg>
