<svg xmlns="http://www.w3.org/2000/svg" viewBox="0 0 800 500" fill="none">
  <rect width="800" height="500" fill="#0a0a0f"/>
  <rect width="800" height="500" fill="url(#bg)" opacity="0.6"/>
  <defs>
    <linearGradient id="bg" x1="0" y1="0" x2="800" y2="500"><stop offset="0%" stop-color="#e63946" stop-opacity="0.2"/><stop offset="100%" stop-color="#007BFF" stop-opacity="0.05"/></linearGradient>
  </defs>
  <ellipse cx="400" cy="420" rx="320" ry="30" fill="#e63946" opacity="0.08"/>
  <circle cx="220" cy="340" r="70" fill="#111" stroke="#333" stroke-width="4"/>
  <circle cx="220" cy="340" r="45" fill="#1a1a2e" stroke="#e63946" stroke-width="2"/>
  <circle cx="580" cy="340" r="70" fill="#111" stroke="#333" stroke-width="4"/>
  <circle cx="580" cy="340" r="45" fill="#1a1a2e" stroke="#e63946" stroke-width="2"/>
  <path d="M220 340 L310 190 L400 175 L510 190 L580 340" stroke="#e63946" stroke-width="6" fill="none" stroke-linecap="round"/>
  <path d="M310 190 L370 340 L220 340" stroke="#e63946" stroke-width="5" fill="none"/>
  <ellipse cx="370" cy="200" rx="85" ry="40" fill="#c1121f" stroke="#8b0000" stroke-width="2"/>
  <path d="M290 188 Q360 165 430 188 L410 215 Q360 205 290 215 Z" fill="#111"/>
  <path d="M510 190 L550 155" stroke="#ccc" stroke-width="4" stroke-linecap="round"/>
  <circle cx="590" cy="205" r="16" fill="#fff" stroke="#e63946" stroke-width="2"/>
  <text x="400" y="480" text-anchor="middle" fill="#e63946" font-family="Arial,sans-serif" font-size="16" font-weight="bold">Royal Enfield Hunter 350</text>
</svg>
