<svg xmlns="http://www.w3.org/2000/svg" viewBox="0 0 800 500" fill="none">
  <rect width="800" height="500" fill="#0a0a0f"/>
  <defs><linearGradient id="bg" x1="0" y1="0" x2="800" y2="500"><stop offset="0%" stop-color="#cc0000" stop-opacity="0.2"/><stop offset="100%" stop-color="#007BFF" stop-opacity="0.05"/></linearGradient></defs>
  <rect width="800" height="500" fill="url(#bg)" opacity="0.6"/>
  <ellipse cx="400" cy="420" rx="320" ry="30" fill="#cc0000" opacity="0.08"/>
  <circle cx="226" cy="342" r="67" fill="#111" stroke="#333" stroke-width="4"/>
  <circle cx="226" cy="342" r="41" fill="#1a1a2e" stroke="#cc0000" stroke-width="2"/>
  <circle cx="574" cy="342" r="67" fill="#111" stroke="#333" stroke-width="4"/>
  <circle cx="574" cy="342" r="41" fill="#1a1a2e" stroke="#cc0000" stroke-width="2"/>
  <path d="M226 342 L308 190 L398 175 L508 190 L574 342" stroke="#cc0000" stroke-width="6" fill="none"/>
  <path d="M308 190 L360 342 L226 342" stroke="#cc0000" stroke-width="5" fill="none"/>
  <rect x="338" y="172" width="92" height="28" rx="6" fill="#990000" stroke="#cc0000"/>
  <path d="M292 186 Q360 163 438 186 L420 212 Q360 202 292 210 Z" fill="#111"/>
  <path d="M508 190 L550 157" stroke="#ccc" stroke-width="4" stroke-linecap="round"/>
  <circle cx="584" cy="200" r="15" fill="#fff"/>
  <text x="400" y="480" text-anchor="middle" fill="#ff4444" font-family="Arial,sans-serif" font-size="16" font-weight="bold">TVS Apache RTR 160 4V</text>
</svg>
