<svg xmlns="http://www.w3.org/2000/svg" viewBox="0 0 800 500" fill="none">
  <rect width="800" height="500" fill="#0a0a0f"/>
  <defs><linearGradient id="bg" x1="0" y1="0" x2="800" y2="500"><stop offset="0%" stop-color="#0047ab" stop-opacity="0.2"/><stop offset="100%" stop-color="#007BFF" stop-opacity="0.05"/></linearGradient></defs>
  <rect width="800" height="500" fill="url(#bg)" opacity="0.6"/>
  <ellipse cx="400" cy="420" rx="320" ry="30" fill="#0047ab" opacity="0.08"/>
  <circle cx="225" cy="342" r="68" fill="#111" stroke="#333" stroke-width="4"/>
  <circle cx="225" cy="342" r="42" fill="#1a1a2e" stroke="#0047ab" stroke-width="2"/>
  <circle cx="575" cy="342" r="68" fill="#111" stroke="#333" stroke-width="4"/>
  <circle cx="575" cy="342" r="42" fill="#1a1a2e" stroke="#0047ab" stroke-width="2"/>
  <path d="M225 342 L310 195 L400 180 L500 195 L575 342" stroke="#0047ab" stroke-width="6" fill="none"/>
  <path d="M310 195 L365 342 L225 342" stroke="#0047ab" stroke-width="5" fill="none"/>
  <rect x="340" y="178" width="90" height="32" rx="8" fill="#003380" stroke="#0047ab" stroke-width="1"/>
  <path d="M295 190 Q360 168 430 190 L415 215 Q360 205 295 212 Z" fill="#111"/>
  <path d="M500 195 L545 162" stroke="#ccc" stroke-width="4" stroke-linecap="round"/>
  <circle cx="585" cy="200" r="16" fill="#eee"/>
  <text x="400" y="480" text-anchor="middle" fill="#4da6ff" font-family="Arial,sans-serif" font-size="16" font-weight="bold">Yamaha MT-15 V2</text>
</svg>
